# xmcd
#
# Track frame offsets:
# 150
# 29632
# 60345
# 82290
# 115382
# 143667
# 178750
# 200687
# 232155
#
# Disc length: 3453 seconds
#
# Revision: 1
# Processed by: cddbd v1.5PL3 Copyright (c) Steve Scherf et al.
# Submitted via: inCDius 2.0b9
#
DISCID=860d7b09
DTITLE=John Mooney and Bluesiana - Travelin' On (Live)
DYEAR=1900
DGENRE=
TTITLE0=Mean Mistreater
TTITLE1=Phonograph Blues
TTITLE2=Maybe Baby
TTITLE3=Junco Partner
TTITLE4=Kind Hearted Woman
TTITLE5=Ain't Gonna Marry
TTITLE6=Standin' 'round Cryin'
TTITLE7=Travelin' On
TTITLE8=Shortin' Bread
EXTD=
EXTT0=
EXTT1=
EXTT2=
EXTT3=
EXTT4=
EXTT5=
EXTT6=
EXTT7=
EXTT8=
PLAYORDER=
